<svg width="56" height="40" viewBox="0 0 56 40" fill="none" xmlns="http://www.w3.org/2000/svg">
<path fill-rule="evenodd" clip-rule="evenodd" d="M48.9921 32.4568V35.8766V37.7738H48.1667V37.3133C47.9052 37.6546 47.5084 37.869 46.9689 37.869C45.9055 37.869 45.0718 37.0353 45.0718 35.8775C45.0718 34.7196 45.906 33.8859 46.9689 33.8859C47.5084 33.8859 47.9052 34.1001 48.1667 34.4416V32.4568H48.9921ZM18.0561 33.9795V35.8766H18.0552V37.7738H17.2315V37.3133C16.9699 37.6546 16.5729 37.869 16.0336 37.869C14.9702 37.869 14.1366 37.0353 14.1366 35.8775C14.1366 34.7196 14.9707 33.8859 16.0336 33.8859C16.5731 33.8859 16.9699 34.1001 17.2315 34.4416V33.9795H18.0561ZM14.9857 35.8766C14.9857 35.2099 15.4224 34.6623 16.1362 34.6623C16.8183 34.6623 17.2786 35.1864 17.2786 35.8766C17.2786 36.5667 16.8183 37.0908 16.1362 37.0908C15.4224 37.0908 14.9857 36.5432 14.9857 35.8766ZM50.6381 37.3376C50.5656 37.2664 50.4681 37.2266 50.3665 37.2267L50.3677 37.2227C50.3156 37.2224 50.264 37.2326 50.2161 37.2528C50.1701 37.2711 50.1284 37.2987 50.0934 37.3337C50.0584 37.3678 50.0306 37.4086 50.0116 37.4536C49.9716 37.5469 49.9716 37.6525 50.0116 37.7459C50.0303 37.7919 50.0577 37.834 50.0922 37.8697C50.1277 37.9041 50.1693 37.9316 50.2149 37.9506C50.2629 37.9708 50.3145 37.981 50.3665 37.9806C50.418 37.9809 50.4689 37.9707 50.5163 37.9506C50.5614 37.9311 50.6026 37.9037 50.6381 37.8697C50.6726 37.8352 50.7004 37.7945 50.7199 37.7498C50.7598 37.6565 50.7598 37.5509 50.7199 37.4575C50.7008 37.4125 50.673 37.3718 50.6381 37.3376ZM50.3665 37.8945C50.4055 37.8948 50.4442 37.8869 50.4799 37.8713C50.5144 37.8565 50.5458 37.8353 50.5723 37.8087C50.599 37.7822 50.6202 37.7509 50.635 37.7163C50.6653 37.6431 50.6653 37.5608 50.635 37.4875C50.62 37.4531 50.5988 37.4218 50.5723 37.3951C50.5458 37.3686 50.5144 37.3474 50.4799 37.3325C50.4439 37.3177 50.4054 37.3104 50.3665 37.3108C50.3269 37.3104 50.2877 37.3178 50.2509 37.3325C50.2157 37.3471 50.1836 37.3683 50.1564 37.3951C50.0729 37.4808 50.0486 37.6082 50.0947 37.7186C50.1088 37.7533 50.1298 37.7847 50.1564 37.811C50.1836 37.8378 50.2157 37.8591 50.2509 37.8737C50.2874 37.8892 50.3268 37.8971 50.3665 37.8968V37.8945ZM50.4931 37.454C50.4631 37.4323 50.4265 37.4217 50.3896 37.424L50.3907 37.4242H50.229V37.7738H50.3034V37.6431H50.3378L50.4441 37.7738H50.5331L50.4175 37.6421C50.4481 37.6399 50.4771 37.6278 50.5003 37.6077C50.5199 37.5891 50.5305 37.5629 50.5294 37.5358C50.5309 37.5044 50.5175 37.474 50.4931 37.454ZM50.3025 37.5884V37.4895V37.4885H50.3887C50.4049 37.4877 50.4209 37.4921 50.4349 37.5011C50.4462 37.5093 50.4528 37.5233 50.4522 37.5379C50.4528 37.5529 50.4463 37.5671 50.4349 37.5758C50.4208 37.5843 50.4048 37.5887 50.3887 37.5884H50.3025ZM45.9208 35.8766C45.9208 35.2099 46.3575 34.6623 47.0715 34.6623C47.7543 34.6623 48.2139 35.1864 48.2139 35.8766C48.2139 36.5667 47.7543 37.0908 47.0715 37.0908C46.3577 37.0908 45.9208 36.5432 45.9208 35.8766ZM28.2916 34.6233C28.823 34.6234 29.1641 34.9565 29.2512 35.5431H27.2835C27.3715 34.9955 27.704 34.6233 28.2916 34.6233ZM26.4191 35.8754C26.4191 34.6926 27.1966 33.8838 28.308 33.8838L28.3076 33.8836C29.3691 33.8836 30.1002 34.6928 30.1085 35.8752C30.1085 35.9841 30.1005 36.086 30.0925 36.1868L30.0921 36.1922H27.2761C27.3951 36.875 27.8789 37.1211 28.4104 37.1211C28.791 37.1211 29.1958 36.9785 29.5137 36.7243L29.9179 37.3355C29.4576 37.7244 28.9345 37.867 28.3633 37.867C27.2278 37.867 26.4191 37.0813 26.4191 35.8754ZM38.2642 35.8752C38.2642 35.2085 38.7009 34.6609 39.4147 34.6609C40.0968 34.6609 40.557 35.185 40.557 35.8752C40.557 36.5654 40.0968 37.0894 39.4147 37.0894C38.7009 37.0894 38.264 36.5418 38.264 35.8752H38.2642ZM41.3344 33.9795V35.8752L41.3346 35.8766V37.7738H40.5101V37.3133C40.2477 37.6546 39.8518 37.869 39.3123 37.869C38.2489 37.869 37.4153 37.0353 37.4153 35.8775C37.4153 34.7196 38.2494 33.8859 39.3123 33.8859C39.8518 33.8859 40.2477 34.1001 40.5101 34.4416V33.9795H41.3344ZM33.6071 35.8752C33.6071 37.0256 34.4079 37.8667 35.6303 37.8667C36.2015 37.8667 36.582 37.7396 36.9936 37.4145L36.5975 36.7479C36.2879 36.9704 35.9628 37.0894 35.6039 37.0894C34.9456 37.0813 34.4615 36.6053 34.4615 35.8752C34.4615 35.145 34.9456 34.6692 35.6039 34.6609C35.9618 34.6609 36.287 34.7799 36.5975 35.0024L36.9936 34.3358C36.5813 34.0107 36.2008 33.8836 35.6303 33.8836C34.4079 33.8836 33.6071 34.7245 33.6071 35.8752ZM43.2386 34.4393C43.4528 34.1061 43.7626 33.8836 44.2384 33.8836L44.2379 33.8843C44.405 33.8843 44.643 33.916 44.8255 33.9878L44.5713 34.7651C44.4074 34.6996 44.2321 34.6672 44.0556 34.6697C43.5165 34.6697 43.2469 35.0184 43.2469 35.646V37.7718H42.4213V33.9795H43.2386V34.4393ZM22.1333 34.281C21.7365 34.0195 21.1898 33.8843 20.5868 33.8843C19.626 33.8843 19.0074 34.3448 19.0074 35.0983C19.0074 35.7167 19.4679 36.0981 20.3159 36.2171L20.7055 36.2726C21.1577 36.3361 21.3712 36.4551 21.3712 36.6693C21.3712 36.9626 21.0708 37.1299 20.5068 37.1299C19.9356 37.1299 19.5234 36.9473 19.2454 36.7331L18.8579 37.3762C19.3101 37.7094 19.8813 37.8683 20.4999 37.8683C21.5951 37.8683 22.2299 37.3526 22.2299 36.6305C22.2299 35.9639 21.7303 35.6152 20.9049 35.4962L20.5163 35.4398C20.1593 35.3936 19.8732 35.3218 19.8732 35.0676C19.8732 34.7903 20.1429 34.6235 20.5953 34.6235C21.0794 34.6235 21.548 34.806 21.7777 34.9486L22.1347 34.282L22.1333 34.281ZM31.7752 34.4407C31.9884 34.1075 32.2983 33.885 32.7741 33.885L32.7736 33.8843C32.9407 33.8843 33.1787 33.916 33.3612 33.9878L33.107 34.7651C32.9431 34.6996 32.7678 34.6672 32.5913 34.6697C32.0522 34.6697 31.7826 35.0184 31.7826 35.646V37.7718H30.9579V33.9795H31.7752V34.4407ZM25.7367 33.9795H24.3882V32.829H23.5546V33.9795H22.7853V34.7332H23.5546V36.4632C23.5546 37.3431 23.8961 37.8672 24.8716 37.8672C25.2296 37.8672 25.6418 37.7563 25.9033 37.574L25.6651 36.8678C25.419 37.0104 25.1494 37.0823 24.9349 37.0823C24.5227 37.0823 24.3882 36.8281 24.3882 36.4475V34.7339H25.7367V33.9795ZM13.4073 35.3927V37.7727L12.5718 37.7708V35.6603C12.5718 35.0175 12.3031 34.6605 11.7399 34.6605C11.1926 34.6605 10.812 35.0103 10.812 35.6686V37.7713H9.97831V35.6607C9.97831 35.0179 9.70126 34.6609 9.15363 34.6609C8.58983 34.6609 8.22475 35.0108 8.22475 35.6691V37.7718H7.39291V33.9795H8.21828V34.4483C8.52814 34.0042 8.92395 33.8852 9.32901 33.8852C9.90852 33.8852 10.3207 34.1394 10.5823 34.5599C10.9319 34.0278 11.4312 33.8771 11.9153 33.8852C12.8361 33.8933 13.4073 34.4964 13.4073 35.3927Z" fill="#231F20"/>
<path fill-rule="evenodd" clip-rule="evenodd" d="M50.7727 24.6033V25.1578H50.6715V24.7391L50.5153 25.1005H50.409L50.2528 24.7401V25.1578H50.1502V24.6033H50.2951L50.4612 24.9838L50.6283 24.6033H50.7727ZM49.8565 24.6982V25.1578H49.8556H49.7539V24.6982H49.5691V24.6047H50.0414V24.6982H49.8565Z" fill="#F79410"/>
<path d="M34.3585 27.5362H21.8611V5.07666H34.3587L34.3585 27.5362Z" fill="#FF5F00"/>
<path d="M22.6534 16.3069C22.6534 11.7509 24.7866 7.69251 28.1084 5.07708C25.594 3.09442 22.484 2.01836 19.2819 2.02309C11.394 2.02309 5 8.41805 5 16.3069C5 24.1957 11.394 30.5906 19.2819 30.5906C22.4841 30.5954 25.5941 29.5194 28.1086 27.5366C24.7871 24.9217 22.6534 20.863 22.6534 16.3069Z" fill="#EB001B"/>
<path d="M51.2189 16.3069C51.2189 24.1957 44.8248 30.5906 36.9369 30.5906C33.7344 30.5953 30.6241 29.5193 28.1091 27.5366C31.4318 24.9212 33.565 20.863 33.565 16.3069C33.565 11.7507 31.4318 7.69251 28.1091 5.07708C30.624 3.09447 33.7343 2.01844 36.9367 2.02309C44.8246 2.02309 51.2186 8.41805 51.2186 16.3069" fill="#F79E1B"/>
</svg>
