<svg width="192" height="32" viewBox="0 0 192 32" fill="none" xmlns="http://www.w3.org/2000/svg">
<path d="M69.9725 29.8901H69.1935V32H67.8478V25.3187H70.0433C71.8847 25.3187 72.8054 26.2329 72.8054 27.5692C72.8054 29.0461 71.7431 29.8198 69.9725 29.8901ZM69.9725 26.3736H69.1935V28.8351H70.0433C71.0349 28.8351 71.5306 28.4132 71.5306 27.5692C71.5306 26.7253 70.964 26.3736 69.9725 26.3736Z" fill="black" fill-opacity="0.12"/>
<path d="M81.5168 31.9297H80.1712L79.6046 30.3121H76.9134L76.3468 31.9297H75.0012L77.4799 25.2484H79.1089L81.5168 31.9297ZM78.259 26.3736L77.2675 29.2571H79.3213L78.259 26.3736Z" fill="black" fill-opacity="0.12"/>
<path d="M85.8368 31.9297H84.4912V25.2484H86.8284C88.5281 25.2484 89.4488 26.022 89.4488 27.2879C89.4488 28.2725 88.8822 28.9055 87.9615 29.1868L89.7321 31.9297H88.2448L86.7575 29.4681L85.766 29.5385V31.9297H85.8368ZM86.7575 28.4835C87.5366 28.4132 88.1032 28.0615 88.1032 27.3582C88.1032 26.6549 87.6074 26.3033 86.6159 26.3033H85.766V28.5538L86.7575 28.4835Z" fill="black" fill-opacity="0.12"/>
<path d="M95.752 26.3736V31.9297H94.4064V26.3736H92.14V25.2484H97.9475V26.3736H95.752Z" fill="black" fill-opacity="0.12"/>
<path d="M105.809 25.2484H107.013V32H105.597L102.41 27.0769V31.9297H101.135V25.2484H102.551L105.809 30.1011V25.2484Z" fill="black" fill-opacity="0.12"/>
<path d="M110.766 31.9297V25.2484H115.37V26.3736H112.041V28.0615H114.732V29.1165H112.041V30.8747H115.37V31.9297H110.766Z" fill="black" fill-opacity="0.12"/>
<path d="M120.115 31.9297H118.77V25.2484H121.107C122.806 25.2484 123.727 26.022 123.727 27.2879C123.727 28.2725 123.161 28.9055 122.24 29.1868L124.01 31.9297H122.523L121.036 29.4681L120.044 29.5385V31.9297H120.115ZM121.107 28.4835C121.886 28.4132 122.452 28.0615 122.452 27.3582C122.452 26.6549 121.957 26.3033 120.965 26.3033H120.115V28.5538L121.107 28.4835Z" fill="black" fill-opacity="0.12"/>
<path d="M4.60347 7.66592C7.36555 7.66592 8.64036 6.61098 8.64036 4.14944C8.64036 1.96922 7.36555 0.773619 5.09923 0.773619C4.03689 0.773619 3.68278 1.1956 3.68278 2.18021V7.66592C4.03689 7.66592 4.32018 7.66592 4.60347 7.66592ZM8.782 12.8703C7.08226 9.63516 5.52417 8.0879 3.96607 8.0879C3.89525 8.0879 3.7536 8.0879 3.68278 8.0879V12.8703C3.68278 13.9956 4.17854 14.1363 5.45334 14.1363V14.6286H0V14.1363H0.141648C1.48728 14.1363 1.5581 13.8549 1.5581 12.6593V12.589V2.3912V2.25054C1.5581 1.05494 1.5581 0.773619 0.141648 0.773619H0V0.281311H1.13317C1.84139 0.281311 2.76209 0.281311 3.96607 0.281311C8.49872 0.281311 10.8359 1.05494 10.8359 4.21977C10.8359 6.11867 9.77352 7.38461 7.64884 7.87691C9.27776 9.28351 10.0568 11.1824 11.0483 12.8703C11.6149 13.7846 12.0398 14.1363 13.1022 14.1363V14.5582H9.63188L8.782 12.8703Z" fill="black" fill-opacity="0.24"/>
<path d="M17.1391 14.066C18.5555 13.9957 18.6263 13.7847 18.6263 12.7297V12.4484V2.39126V2.18027C18.6263 1.055 18.5555 0.77368 17.2807 0.77368H17.1391V0.281372H27.4792L28.5415 3.51654L28.1166 3.6572C27.4792 2.60225 26.8418 1.75829 26.1335 1.26599C25.3545 0.77368 24.363 0.70335 22.8757 0.70335H22.5216H20.751V6.96269C21.3176 6.96269 21.7425 6.96269 21.8134 6.96269C24.0797 6.96269 24.9296 6.61104 25.2128 4.36049H25.567V10.0572H25.2128C24.8587 7.80665 24.0089 7.455 21.8134 7.455H20.751V12.4484C20.751 13.7143 21.0343 13.9957 22.4508 13.9957H23.7256C26.2752 13.9957 26.9834 13.3627 28.6831 10.6198L29.1081 10.7605L28.329 14.488H17.1391V14.066Z" fill="black" fill-opacity="0.24"/>
<path d="M33.5699 14.066C34.9864 13.9957 35.0572 13.7847 35.0572 12.7297V12.4484V2.39126V2.18027C35.0572 1.055 34.9864 0.77368 33.7116 0.77368H33.5699V0.281372H43.91L44.9724 3.51654L44.5474 3.6572C43.91 2.60225 43.2726 1.75829 42.5644 1.26599C41.7853 0.77368 40.7938 0.70335 39.3065 0.70335H38.9524H37.1819V6.96269C37.7484 6.96269 38.1734 6.96269 38.2442 6.96269C40.5105 6.96269 41.3604 6.61104 41.6437 4.36049H41.9978V10.0572H41.6437C41.2896 7.80665 40.4397 7.455 38.2442 7.455H37.1819V12.4484C37.1819 13.7143 37.4652 13.9957 38.8816 13.9957H40.1564C42.706 13.9957 43.4143 13.3627 45.114 10.6198L45.5389 10.7605L44.7599 14.488H33.5699V14.066Z" fill="black" fill-opacity="0.24"/>
<path d="M55.6667 14.2065C57.2956 14.2065 58.4996 13.9956 59.6327 13.2219C61.1908 12.0967 62.1115 10.0571 62.1115 7.45489C62.1115 4.92303 61.1909 2.88346 59.7036 1.68786C58.6412 0.843904 57.2956 0.632915 55.5959 0.632915C53.8961 0.632915 53.6836 1.12522 53.6836 2.53182V12.3076C53.6836 13.7142 54.0378 14.2065 55.6667 14.2065ZM50.0717 14.0659C51.4881 13.9956 51.559 13.7142 51.559 12.589V12.0263V2.81314V2.03951C51.559 1.05489 51.2757 0.843904 50.0717 0.773575V0.281267H51.9839C53.9669 0.281267 55.525 0.210938 56.729 0.210938C61.545 0.210938 64.3779 3.02412 64.3779 7.45489C64.3779 9.98676 63.3155 12.167 61.4741 13.3626C60.1993 14.2065 58.2163 14.6285 55.5959 14.6285C54.3919 14.6285 52.9754 14.5582 51.3465 14.5582H50.0717V14.0659Z" fill="black" fill-opacity="0.24"/>
<path d="M93.5568 14.1363H93.9817V14.5583H89.6615V14.1363H90.0865C91.1488 14.1363 91.5029 13.3627 91.5029 11.7451V1.54731C91.3613 0.914339 90.8655 0.77368 89.8032 0.70335V0.281372H93.3443L98.7268 11.7451L103.684 0.281372H107.013V0.77368H106.871C105.526 0.77368 105.455 1.055 105.455 2.2506V2.32093V12.3781V12.8001C105.455 13.855 105.597 13.9253 107.013 14.066V14.488H101.701V14.066C103.189 13.9957 103.401 13.7847 103.401 12.8001V2.2506L98.1602 14.5583H97.7353L91.9987 2.46159V11.7451C92.0695 13.2924 92.4236 14.1363 93.5568 14.1363Z" fill="black" fill-opacity="0.24"/>
<path d="M119.548 8.65055L117.282 2.81319L115.157 8.65055H119.548ZM111.333 14.0659L112.041 13.9253C112.82 13.7846 112.962 12.589 113.812 10.4791L116.857 2.6022C116.928 2.46154 116.928 2.39121 116.928 2.25055C116.928 2.10989 116.857 1.96923 116.786 1.82857L116.574 1.54725C117.211 1.12527 117.707 0.632967 118.132 0H118.344L123.373 13.011C123.727 13.8549 123.939 14.1363 124.931 14.1363V14.6286H119.548V14.1363L120.186 14.0659C120.894 13.9956 121.177 13.9253 121.177 13.433C121.177 13.2923 121.107 13.011 121.036 12.7297L119.761 9.28352H114.874L113.812 12.167C113.67 12.589 113.529 13.011 113.529 13.3626C113.529 13.8549 113.953 13.9956 114.732 14.1363L115.157 14.2066V14.6989H111.333V14.0659Z" fill="black" fill-opacity="0.24"/>
<path d="M141.079 9.56413V14.2762H140.654L140.3 13.5026C140.229 13.4323 140.158 13.3619 140.087 13.3619C139.733 13.3619 138.246 14.8389 135.484 14.8389C133.855 14.8389 132.367 14.2762 131.093 13.2916C129.322 11.885 128.472 9.98611 128.472 7.45424C128.472 5.696 129.039 4.07841 129.96 2.81248C131.305 1.12457 133.359 0.139954 135.484 0.139954C138.033 0.139954 139.521 1.47622 140.016 1.47622C140.37 1.47622 140.512 1.26523 140.654 0.772921H141.008V5.55534H140.583C140.229 2.53116 138.317 0.632261 135.838 0.632261C133.005 0.632261 130.597 3.37512 130.597 7.52457C130.597 11.674 132.934 14.3465 135.696 14.3465C138.175 14.3465 140.016 12.729 140.583 9.63446H141.079V9.56413Z" fill="black" fill-opacity="0.24"/>
<path d="M152.269 0.77368C150.64 0.77368 150.427 0.844009 150.427 2.03961V7.59566L154.747 2.9539C155.314 2.32093 155.668 1.89895 155.668 1.47698C155.668 0.984669 155.172 0.77368 154.181 0.77368V0.281372H159.068V0.77368C157.722 0.77368 156.73 1.68797 155.314 3.16489L152.552 6.0484L157.864 12.9407C158.289 13.5033 158.572 13.9957 159.776 13.9957V14.488H156.518L151.065 7.66599L150.427 8.29895V12.8001C150.427 13.855 150.569 14.066 151.702 14.066H152.269V14.5583H146.815V14.066C148.232 13.9957 148.303 13.7847 148.303 12.7297V12.4484V2.39126V2.10994C148.303 1.055 148.232 0.844009 146.815 0.77368V0.281372H152.269V0.77368Z" fill="black" fill-opacity="0.24"/>
<path d="M171.674 8.65055L169.408 2.81319L167.283 8.65055H171.674ZM163.458 14.0659L164.167 13.9253C164.946 13.7846 165.087 12.589 165.937 10.4791L168.983 2.6022C169.053 2.46154 169.053 2.39121 169.053 2.25055C169.053 2.10989 168.983 1.96923 168.912 1.82857L168.699 1.54725C169.337 1.12527 169.832 0.632967 170.257 0H170.47L175.498 13.011C175.852 13.8549 176.065 14.1363 177.056 14.1363V14.6286H171.674V14.1363L172.311 14.0659C173.019 13.9956 173.303 13.9253 173.303 13.433C173.303 13.2923 173.232 13.011 173.161 12.7297L171.886 9.28352H167L165.937 12.167C165.796 12.589 165.654 13.011 165.654 13.3626C165.654 13.8549 166.079 13.9956 166.858 14.1363L167.283 14.2066V14.6989H163.458V14.0659Z" fill="black" fill-opacity="0.24"/>
<path d="M186.688 12.5891C186.688 13.7847 186.759 13.9957 188.246 13.9957V14.488H183.076V13.9957H183.218C184.564 13.9957 184.634 13.7143 184.634 12.5187V12.4484V8.08796L180.952 1.7583C180.527 1.055 180.173 0.77368 179.464 0.77368V0.281372H184.634V0.77368C183.643 0.77368 183.218 0.914339 183.218 1.40665C183.218 1.54731 183.289 1.68797 183.431 1.89895L186.547 7.17368L189.025 2.9539C189.38 2.32093 189.592 1.89895 189.592 1.54731C189.592 0.984669 189.238 0.77368 188.317 0.77368V0.281372H192V0.77368C190.796 0.844009 190.442 1.54731 189.875 2.60225L186.759 7.73632V12.4484V12.5891H186.688Z" fill="black" fill-opacity="0.24"/>
<path d="M76.7717 2.18017C76.7717 1.40654 76.1343 0.773575 75.4261 0.773575C74.7178 0.773575 74.0804 1.33621 74.0804 1.96918C74.0804 2.46149 74.5762 3.02412 75.5677 3.72742C76.3468 3.16478 76.7717 2.74281 76.7717 2.18017ZM74.5054 4.57138C73.2306 5.13401 72.664 5.90764 72.664 7.03291C72.664 8.43951 73.5847 9.49445 74.8595 9.49445C75.7802 9.49445 76.8425 9.00214 77.7632 7.9472C77.055 6.96258 75.9927 5.83731 74.5054 4.57138ZM74.0804 10.901C72.5224 10.901 71.3184 9.56478 71.3184 7.87687C71.3184 6.39995 72.2391 5.41533 74.0804 4.36039C73.443 3.79775 73.0889 3.23511 73.0889 2.67248C73.0889 2.18017 73.443 1.61753 74.0096 1.05489C74.647 0.492256 75.3553 0.210938 75.9927 0.210938C76.9842 0.210938 77.7632 0.914234 77.7632 1.75819C77.7632 2.53182 77.1258 3.09445 75.7802 3.93841C76.6301 4.71204 77.6216 5.48566 78.5423 6.82193L80.0295 4.64171C80.1712 4.43072 80.242 4.29006 80.242 4.1494C80.242 3.79775 79.8879 3.65709 79.1797 3.65709V3.30544H82.3667V3.65709C81.2335 3.65709 80.5961 4.50105 79.3213 6.25929L78.7547 7.10324C80.0295 9.00214 80.7378 10.0571 81.3752 10.0571C81.6585 10.0571 81.9418 9.91643 82.1542 9.56478L82.4375 9.77577C82.0834 10.4087 81.3752 10.8307 80.667 10.8307C79.3922 10.8307 78.9672 9.8461 77.8341 8.36918C76.5592 9.98676 75.5677 10.901 74.0804 10.901Z" fill="black" fill-opacity="0.24"/>
<path d="M82.65 13.1517H71.3184V14.5583H82.65V13.1517Z" fill="black" fill-opacity="0.24"/>
</svg>
