<svg width="40" height="40" viewBox="0 0 40 40" fill="none" xmlns="http://www.w3.org/2000/svg">
<circle cx="20" cy="20" r="19.5" stroke="black" stroke-opacity="0.12"/>
<path d="M29 14.7318C28.3377 15.0258 27.626 15.2237 26.879 15.313C27.6418 14.8562 28.2275 14.1325 28.5028 13.27C27.7895 13.693 26.999 14.0005 26.1575 14.1662C25.4847 13.4485 24.524 13 23.462 13C21.0777 13 19.3258 15.2245 19.8643 17.5338C16.796 17.38 14.075 15.91 12.2533 13.6758C11.2858 15.3355 11.7515 17.5067 13.3955 18.6062C12.791 18.5867 12.221 18.421 11.7237 18.1442C11.6832 19.855 12.9095 21.4555 14.6855 21.8117C14.1658 21.9527 13.5965 21.9858 13.0175 21.8748C13.487 23.3418 14.8505 24.409 16.4675 24.439C14.915 25.6562 12.959 26.2 11 25.969C12.6342 27.0168 14.576 27.628 16.661 27.628C23.5175 27.628 27.3912 21.8372 27.1572 16.6435C27.8787 16.1222 28.505 15.472 29 14.7318Z" fill="black" fill-opacity="0.24"/>
</svg>
