<svg width="74" height="40" viewBox="0 0 74 40" fill="none" xmlns="http://www.w3.org/2000/svg">
<path fill-rule="evenodd" clip-rule="evenodd" d="M51.0661 10.6047L50.3351 14.83C48.1431 13.6221 43.1544 13.3363 43.1539 15.561C43.1539 16.4449 44.2826 17.0527 45.6431 17.7853C47.7063 18.8963 50.3024 20.2944 50.3024 23.3774C50.3024 28.3037 45.029 30.1137 41.5335 30.1137C38.0389 30.1137 35.7517 29.0026 35.7517 29.0026L36.5132 24.5847C38.6105 26.2684 44.9654 26.7468 44.9654 24.0768C44.9654 22.9549 43.7144 22.2932 42.2637 21.526C40.2622 20.4674 37.8805 19.2077 37.8805 16.2605C37.8805 10.8579 43.917 9.74683 46.459 9.74683C48.8104 9.74683 51.0661 10.6047 51.0661 10.6047ZM68.1572 29.7742H63.4538L62.8538 26.8516H56.3421L55.2743 29.7742H49.9346L57.5741 11.5642C57.5741 11.5642 58.0373 10.0979 59.9387 10.0979H64.0564L68.1572 29.7742ZM23.164 10.0984L18.2806 23.6316L17.7027 20.7174L17.7032 20.7184L15.9797 11.87C15.9797 11.87 15.7712 10.0984 13.5498 10.0984H5.47657L5.38184 10.4316C5.38184 10.4316 7.85064 10.9452 10.74 12.6805L15.1902 29.7747H20.5273L28.6768 10.0984H23.164ZM32.5955 29.7742H27.4732L30.6746 10.0984H35.7975L32.5955 29.7742ZM57.8173 22.8142L60.5087 15.451L62.0228 22.8142H57.8173Z" fill="#2566AF"/>
<path d="M18.2295 20.7179L16.5059 11.8695C16.5059 11.8695 16.2975 10.0979 14.076 10.0979H6.00281L5.90808 10.4311C5.90808 10.4311 9.78839 11.2353 13.5103 14.2484C17.069 17.1284 18.2295 20.7179 18.2295 20.7179Z" fill="#E6A540"/>
</svg>
