<svg width="40" height="40" viewBox="0 0 40 40" fill="none" xmlns="http://www.w3.org/2000/svg">
<circle cx="20" cy="20" r="19.5" stroke="black" stroke-opacity="0.12"/>
<path d="M29.8833 25.3358C29.8567 25.2784 29.8319 25.2308 29.8088 25.1926C29.4271 24.5052 28.6977 23.6614 27.621 22.661L27.5982 22.6381L27.5868 22.6268L27.5753 22.6153H27.5638C27.0751 22.1495 26.7657 21.8363 26.6361 21.6759C26.399 21.3705 26.3459 21.0613 26.4754 20.748C26.567 20.5112 26.9109 20.0114 27.5064 19.2476C27.8196 18.8428 28.0676 18.5184 28.2508 18.274C29.572 16.5176 30.1448 15.3952 29.9691 14.9064L29.9008 14.7922C29.855 14.7234 29.7366 14.6605 29.5459 14.6031C29.3548 14.5459 29.1105 14.5364 28.8126 14.5746L25.5138 14.5974C25.4604 14.5784 25.3841 14.5802 25.2846 14.6031C25.1853 14.6261 25.1357 14.6376 25.1357 14.6376L25.0783 14.6663L25.0327 14.7008C24.9945 14.7235 24.9525 14.7636 24.9066 14.8209C24.861 14.878 24.8229 14.945 24.7924 15.0214C24.4332 15.9453 24.0249 16.8044 23.5666 17.5986C23.284 18.0721 23.0245 18.4825 22.7876 18.83C22.5509 19.1773 22.3523 19.4332 22.1921 19.5973C22.0316 19.7615 21.8868 19.893 21.7567 19.9924C21.6269 20.0918 21.5277 20.1338 21.4591 20.1185C21.3903 20.1031 21.3255 20.0879 21.2641 20.0726C21.1573 20.0039 21.0714 19.9103 21.0066 19.792C20.9415 19.6736 20.8977 19.5247 20.8748 19.3452C20.852 19.1656 20.8385 19.0112 20.8346 18.8813C20.8311 18.7516 20.8327 18.5681 20.8405 18.3314C20.8484 18.0946 20.852 17.9344 20.852 17.8504C20.852 17.5601 20.8576 17.2451 20.869 16.9053C20.8805 16.5655 20.8899 16.2963 20.8977 16.0979C20.9055 15.8994 20.9091 15.6893 20.9091 15.4678C20.9091 15.2464 20.8956 15.0727 20.869 14.9466C20.8427 14.8208 20.8023 14.6985 20.749 14.5801C20.6955 14.4617 20.6171 14.3702 20.5142 14.3052C20.4111 14.2403 20.283 14.1887 20.1305 14.1505C19.7257 14.0589 19.2103 14.0093 18.584 14.0016C17.1637 13.9864 16.2511 14.0781 15.8464 14.2767C15.686 14.3605 15.5409 14.4752 15.4112 14.6202C15.2737 14.7882 15.2545 14.8799 15.3538 14.895C15.812 14.9637 16.1364 15.1279 16.3274 15.3875L16.3962 15.5251C16.4497 15.6243 16.5031 15.8 16.5566 16.052C16.61 16.3039 16.6445 16.5826 16.6596 16.888C16.6977 17.4455 16.6977 17.9228 16.6596 18.3198C16.6214 18.717 16.5853 19.0262 16.5508 19.2476C16.5164 19.4691 16.4649 19.6486 16.3962 19.786C16.3274 19.9234 16.2816 20.0074 16.2586 20.0379C16.2357 20.0684 16.2166 20.0876 16.2015 20.0952C16.1022 20.1332 15.999 20.1526 15.8921 20.1526C15.7851 20.1526 15.6554 20.0991 15.5027 19.9921C15.35 19.8851 15.1916 19.7382 15.0274 19.5511C14.8632 19.3639 14.678 19.1024 14.4717 18.7664C14.2657 18.4305 14.0518 18.0334 13.8304 17.5753L13.6471 17.243C13.5326 17.0292 13.3761 16.718 13.1776 16.3095C12.9789 15.9009 12.8033 15.5056 12.6506 15.1238C12.5896 14.9635 12.4979 14.8414 12.3758 14.7574L12.3184 14.7229C12.2803 14.6924 12.2191 14.66 12.1352 14.6255C12.0512 14.5911 11.9635 14.5664 11.8718 14.5511L8.73323 14.5739C8.41251 14.5739 8.1949 14.6466 8.08032 14.7917L8.03446 14.8604C8.01155 14.8986 8 14.9596 8 15.0437C8 15.1277 8.02291 15.2308 8.06877 15.3529C8.52693 16.4297 9.02518 17.4682 9.5635 18.4686C10.1018 19.4689 10.5696 20.2747 10.9666 20.8852C11.3637 21.4962 11.7684 22.0729 12.1808 22.6149C12.5932 23.1571 12.8662 23.5046 12.9997 23.6572C13.1334 23.8102 13.2385 23.9245 13.3148 24.0009L13.6012 24.2757C13.7845 24.459 14.0536 24.6786 14.4087 24.9343C14.7639 25.1902 15.1571 25.4422 15.5886 25.6906C16.0201 25.9386 16.5221 26.1409 17.0949 26.2974C17.6676 26.4541 18.225 26.517 18.7672 26.4866H20.0845C20.3517 26.4636 20.5541 26.3796 20.6917 26.2346L20.7372 26.1772C20.7679 26.1316 20.7966 26.0608 20.8231 25.9655C20.8499 25.87 20.8632 25.7649 20.8632 25.6505C20.8554 25.3222 20.8803 25.0263 20.9375 24.7629C20.9946 24.4995 21.0596 24.301 21.1324 24.1673C21.2052 24.0337 21.2872 23.9209 21.3786 23.8295C21.4701 23.738 21.5354 23.6825 21.5737 23.6634C21.6117 23.6442 21.6421 23.6311 21.665 23.6233C21.8482 23.5622 22.0639 23.6214 22.3123 23.801C22.5606 23.9804 22.7934 24.202 23.0111 24.4654C23.2288 24.729 23.4903 25.0247 23.7957 25.353C24.1013 25.6814 24.3685 25.9255 24.5975 26.0861L24.8265 26.2236C24.9794 26.3153 25.178 26.3993 25.4224 26.4756C25.6663 26.552 25.8801 26.571 26.0636 26.5329L28.9959 26.4872C29.2859 26.4872 29.5116 26.4391 29.6717 26.3439C29.8321 26.2484 29.9273 26.1433 29.9581 26.0289C29.9887 25.9144 29.9904 25.7845 29.9639 25.6392C29.9367 25.4944 29.91 25.3931 29.8833 25.3358Z" fill="black" fill-opacity="0.24"/>
</svg>
